<svg xmlns="http://www.w3.org/2000/svg" viewBox="26 25 162 198">
  <defs>
    <clipPath id="clip1">
      <path d="m152 49h28v118h-28zm0 0"/>
    </clipPath>
    <clipPath id="clip2">
      <path d="m155.67 49.27c-12.39 0-22.52 10.14-22.52 22.53V220.54c0 12.39 10.14 22.52 22.52 22.52h104.32c12.39 0 22.52-10.14 22.52-22.52V71.8c0-12.39-10.14-22.53-22.52-22.53zm0 0"/>
    </clipPath>
    <clipPath id="clip3">
      <path d="m149 163h128v81H149Zm0 0"/>
    </clipPath>
    <clipPath id="clip4">
      <path d="m155.67 49.27c-12.39 0-22.52 10.14-22.52 22.53V220.54c0 12.39 10.14 22.52 22.52 22.52h104.32c12.39 0 22.52-10.14 22.52-22.52V71.8c0-12.39-10.14-22.53-22.52-22.53zm0 0"/>
    </clipPath>
    <clipPath id="clip5">
      <path d="m187 49h96v118h-96zm0 0"/>
    </clipPath>
    <clipPath id="clip6">
      <path d="m155.67 49.27c-12.39 0-22.52 10.14-22.52 22.53V220.54c0 12.39 10.14 22.52 22.52 22.52h104.32c12.39 0 22.52-10.14 22.52-22.52V71.8c0-12.39-10.14-22.53-22.52-22.53zm0 0"/>
    </clipPath>
  </defs>
  <!-- 3D stacked book effect: shadow, middle, front -->
  <path d="M163.11 220.65H58.79c-12.39 0-22.52-10.14-22.52-22.52V49.38c0-12.39 10.14-22.52 22.52-22.52H163.11c12.39 0 22.52 10.14 22.52 22.52V198.13c0 12.39-10.14 22.52-22.52 22.52" fill="#00a89c"/>
  <path d="M159.11 220.65H54.79c-12.39 0-22.52-10.14-22.52-22.52V49.38c0-12.39 10.14-22.52 22.52-22.52H159.11c12.39 0 22.52 10.14 22.52 22.52V198.13c0 12.39-10.14 22.52-22.52 22.52" fill="#fff"/>
  <path d="M154.11 220.65H49.79c-12.39 0-22.52-10.14-22.52-22.52V49.38c0-12.39 10.14-22.52 22.52-22.52H154.11c12.39 0 22.52 10.14 22.52 22.52V198.13c0 12.39-10.14 22.52-22.52 22.52" fill="#00a89c"/>
  <!-- Bookmark -->
  <g transform="translate(-105.87856,-22.417965)" clip-path="url(#clip1)">
    <g clip-path="url(#clip2)">
      <path d="m152.79 166.82 13.34-11.14 13.34 11.14V34.32h-26.69zm0 0" fill="#fff"/>
    </g>
  </g>
  <!-- Open book circle -->
  <g transform="translate(-105.87856,-22.417965)" clip-path="url(#clip3)">
    <g clip-path="url(#clip4)">
      <path d="m212.95 187.22c-21.97 0-39.85 17.88-39.85 39.85 0 21.97 17.88 39.85 39.85 39.85 21.97 0 39.85-17.87 39.85-39.85 0-21.97-17.87-39.85-39.85-39.85m0 103.7c-35.21 0-63.85-28.64-63.85-63.85 0-35.21 28.64-63.85 63.85-63.85 35.21 0 63.85 28.64 63.85 63.85 0 35.21-28.64 63.85-63.85 63.85" fill="#fff"/>
    </g>
  </g>
  <!-- K letterform -->
  <g transform="translate(-105.87856,-22.417965)" clip-path="url(#clip5)">
    <g clip-path="url(#clip6)">
      <path d="m280.41 166.82c-9.38 0.02-19.17-0.04-22.35 0-18.47 0.25-18.89-3.35-24.83-8.1-9.08-7.24-29.79-27.84-39.95-37.25-3.46-3.21-5.42-6.94-5.42-10.43v-2.84c0-4.64 1.75-9.13 4.9-12.54l56.73-61.52h34.74l-69.52 74.26c5.93 6.98 25.91 26.4 51.77 48.46 5.43 4.63 9.6 8.13 13.93 9.96" fill="#fff"/>
    </g>
  </g>
</svg>
