<svg width="187" height="41" viewBox="0 0 187 41" fill="none" xmlns="http://www.w3.org/2000/svg">
<path d="M54.4535 30.1396C53.1345 30.1396 51.9524 29.8327 50.9072 29.2134C49.8619 28.5942 49.0355 27.7557 48.428 26.6925C47.8205 25.6293 47.5086 24.4291 47.4922 23.0919V11.5285C47.4922 11.1394 47.6126 10.827 47.8589 10.5913C48.1051 10.3557 48.4116 10.2351 48.7837 10.2351C49.1723 10.2351 49.4843 10.3557 49.7196 10.5913C49.9549 10.827 50.0753 11.1394 50.0753 11.5285V18.3734C50.6664 17.6609 51.3778 17.1019 52.2151 16.6854C53.0525 16.2689 53.9664 16.0662 54.9624 16.0662C56.1938 16.0662 57.2993 16.3731 58.2789 16.9923C59.2585 17.6116 60.0302 18.4446 60.5938 19.5023C61.1575 20.56 61.4421 21.7547 61.4421 23.0919C61.4421 24.4291 61.1356 25.6293 60.5172 26.6925C59.8988 27.7557 59.067 28.5996 58.0217 29.2134C56.9819 29.8327 55.7888 30.1396 54.4535 30.1396ZM54.4535 27.8543C55.3127 27.8543 56.0843 27.6461 56.7575 27.2351C57.4306 26.8185 57.9669 26.2486 58.3665 25.5252C58.7605 24.7963 58.963 23.9852 58.963 23.0919C58.963 22.1767 58.766 21.3656 58.3665 20.6587C57.9669 19.9462 57.4361 19.3872 56.7575 18.9707C56.0843 18.5542 55.3127 18.3515 54.4535 18.3515C53.6107 18.3515 52.8445 18.5597 52.1604 18.9707C51.4763 19.3872 50.94 19.9462 50.5514 20.6587C50.1629 21.3711 49.9713 22.1822 49.9713 23.0919C49.9713 23.9907 50.1629 24.8018 50.5514 25.5252C50.94 26.2541 51.4763 26.824 52.1604 27.2351C52.85 27.6516 53.6107 27.8543 54.4535 27.8543Z" fill="white"/>
<path d="M71.058 30.1398C69.6898 30.1398 68.4803 29.8383 67.435 29.241C66.3898 28.6381 65.5634 27.8106 64.9669 26.7584C64.3649 25.7007 64.0693 24.4895 64.0693 23.1195C64.0693 21.7329 64.3703 20.5108 64.9669 19.4531C65.5634 18.3954 66.3898 17.5679 67.435 16.9705C68.4803 16.3677 69.6898 16.0718 71.058 16.0718C72.4097 16.0718 73.6083 16.3732 74.6535 16.9705C75.6988 17.5734 76.5252 18.4009 77.1217 19.4531C77.7183 20.5108 78.0193 21.7329 78.0193 23.1195C78.0193 24.4895 77.7237 25.7007 77.1327 26.7584C76.5416 27.8161 75.7207 28.6436 74.6754 29.241C73.6301 29.8383 72.4262 30.1398 71.058 30.1398ZM71.058 27.8545C71.9336 27.8545 72.7107 27.6517 73.3894 27.2461C74.0625 26.8406 74.5933 26.2816 74.971 25.5746C75.3486 24.8622 75.5401 24.0456 75.5401 23.114C75.5401 22.1823 75.3486 21.3603 74.971 20.6424C74.5933 19.9244 74.0625 19.36 73.3894 18.9544C72.7162 18.5489 71.9391 18.3461 71.058 18.3461C70.1823 18.3461 69.4052 18.5489 68.7266 18.9544C68.0535 19.36 67.5171 19.9244 67.1286 20.6424C66.74 21.3603 66.5485 22.1878 66.5485 23.114C66.5485 24.0456 66.74 24.8622 67.1286 25.5746C67.5171 26.2871 68.048 26.8406 68.7266 27.2461C69.3998 27.6517 70.1769 27.8545 71.058 27.8545Z" fill="white"/>
<path d="M87.5902 30.1398C86.222 30.1398 85.0126 29.8383 83.9673 29.241C82.922 28.6381 82.0956 27.8106 81.4991 26.7584C80.8971 25.7007 80.6016 24.4895 80.6016 23.1195C80.6016 21.7329 80.9026 20.5108 81.4991 19.4531C82.0956 18.3954 82.922 17.5679 83.9673 16.9705C85.0126 16.3677 86.222 16.0718 87.5902 16.0718C88.942 16.0718 90.1405 16.3732 91.1858 16.9705C92.2311 17.5734 93.0574 18.4009 93.654 19.4531C94.2505 20.5108 94.5515 21.7329 94.5515 23.1195C94.5515 24.4895 94.256 25.7007 93.6649 26.7584C93.0738 27.8161 92.2529 28.6436 91.2077 29.241C90.1624 29.8383 88.9584 30.1398 87.5902 30.1398ZM87.5902 27.8545C88.4658 27.8545 89.243 27.6517 89.9216 27.2461C90.5947 26.8406 91.1256 26.2816 91.5032 25.5746C91.8808 24.8622 92.0724 24.0456 92.0724 23.114C92.0724 22.1823 91.8808 21.3603 91.5032 20.6424C91.1256 19.9244 90.5947 19.36 89.9216 18.9544C89.2484 18.5489 88.4713 18.3461 87.5902 18.3461C86.7146 18.3461 85.9374 18.5489 85.2588 18.9544C84.5857 19.36 84.0494 19.9244 83.6608 20.6424C83.2722 21.3603 83.0807 22.1878 83.0807 23.114C83.0807 24.0456 83.2722 24.8622 83.6608 25.5746C84.0494 26.2871 84.5802 26.8406 85.2588 27.2461C85.932 27.6517 86.7091 27.8545 87.5902 27.8545Z" fill="white"/>
<path d="M98.6241 30.0355C98.252 30.0355 97.951 29.9204 97.7266 29.6957C97.4968 29.4655 97.3818 29.1696 97.3818 28.7969V11.4737C97.3818 11.101 97.4968 10.7996 97.7266 10.5749C97.9565 10.3447 98.252 10.2351 98.6241 10.2351C98.9963 10.2351 99.2973 10.3502 99.5217 10.5749C99.7515 10.8051 99.861 11.101 99.861 11.4737V28.7969C99.861 29.1696 99.746 29.471 99.5217 29.6957C99.2973 29.9204 98.9963 30.0355 98.6241 30.0355ZM99.8117 24.9662L98.241 23.2399L106.018 16.2909C106.27 16.0552 106.554 15.9456 106.866 15.962C107.178 15.9785 107.446 16.1155 107.665 16.3676C107.9 16.6197 108.01 16.8992 107.993 17.2061C107.977 17.513 107.84 17.7815 107.588 18.0172L99.8117 24.9662ZM107.665 29.9094C107.397 30.1287 107.096 30.2273 106.768 30.1999C106.439 30.1725 106.166 30.0245 105.947 29.756L100.808 23.3879L102.581 21.7164L107.851 28.2105C108.07 28.4791 108.169 28.775 108.141 29.0874C108.108 29.3998 107.95 29.6738 107.665 29.9094Z" fill="white"/>
<path d="M111.419 18.8503C111.063 18.8503 110.779 18.7516 110.56 18.5434C110.341 18.3406 110.231 18.0885 110.231 17.7816C110.231 17.4418 110.341 17.1733 110.56 16.9705C110.779 16.7678 111.069 16.6636 111.419 16.6636H117.674C118.03 16.6636 118.315 16.7623 118.534 16.9705C118.752 17.1733 118.862 17.4418 118.862 17.7816C118.862 18.0885 118.752 18.3406 118.534 18.5434C118.315 18.7461 118.025 18.8503 117.674 18.8503H111.419ZM113.75 30.0356C113.428 30.0356 113.143 29.915 112.891 29.6794C112.639 29.4437 112.514 29.1313 112.514 28.7422V16.2416C112.514 15.025 112.754 13.9673 113.236 13.074C113.718 12.1807 114.391 11.4792 115.25 10.9805C116.109 10.4818 117.105 10.2297 118.238 10.2297C118.61 10.2297 118.917 10.3393 119.163 10.5586C119.409 10.7778 119.53 11.0573 119.53 11.397C119.53 11.7204 119.409 11.9944 119.163 12.2191C118.917 12.4493 118.61 12.5589 118.238 12.5589C117.614 12.5589 117.067 12.7014 116.591 12.9918C116.12 13.2823 115.748 13.6769 115.491 14.1865C115.228 14.6962 115.097 15.2935 115.097 15.9895V28.7477C115.097 29.1368 114.976 29.4492 114.741 29.6849C114.5 29.9205 114.172 30.0356 113.75 30.0356Z" fill="white"/>
<path d="M134.055 17.1513C134.006 16.8992 133.885 16.6855 133.71 16.5046C133.53 16.3238 133.316 16.2087 133.064 16.1594C132.977 16.1484 132.884 16.1375 132.785 16.1375C132.648 16.1375 132.517 16.1539 132.391 16.1868C132.309 16.2087 132.232 16.2416 132.161 16.2799C132.052 16.3347 131.948 16.4115 131.86 16.5046C131.68 16.6855 131.565 16.8992 131.516 17.1513C131.505 17.239 131.494 17.3322 131.494 17.4308V23.6674C131.494 24.6155 131.313 25.3992 130.957 26.013C130.607 26.6323 130.125 27.0871 129.518 27.3831C128.954 27.6571 128.319 27.805 127.614 27.827C126.886 27.816 126.229 27.6735 125.638 27.3885C125.03 27.0926 124.549 26.6377 124.193 26.0185C123.837 25.3992 123.662 24.621 123.662 23.6729V17.4308C123.662 17.0581 123.542 16.7512 123.296 16.5046C123.049 16.258 122.743 16.1375 122.371 16.1375C121.999 16.1375 121.692 16.258 121.446 16.5046C121.2 16.7512 121.079 17.0581 121.079 17.4308V23.6674C121.079 25.0704 121.347 26.2541 121.878 27.2186C122.409 28.1832 123.137 28.9121 124.056 29.4108C124.976 29.9095 126.021 30.1616 127.187 30.1616C127.291 30.1616 127.849 30.1616 127.969 30.1616C129.135 30.1616 130.18 29.915 131.1 29.4108C131.253 29.3286 131.401 29.2409 131.543 29.1368C132.254 28.6655 132.834 28.0243 133.278 27.2186C133.809 26.2541 134.077 25.0704 134.077 23.6674V17.4308C134.077 17.3322 134.066 17.239 134.055 17.1513Z" fill="white"/>
<path d="M173.157 29.1477C173.206 29.3998 173.326 29.6135 173.501 29.7944C173.682 29.9752 173.895 30.0903 174.147 30.1397C174.235 30.1506 174.328 30.1616 174.426 30.1616C174.563 30.1616 174.694 30.1451 174.82 30.1123C174.902 30.0903 174.979 30.0575 175.05 30.0191C175.16 29.9643 175.264 29.8876 175.351 29.7944C175.532 29.6135 175.647 29.3998 175.696 29.1477C175.707 29.06 175.718 28.9669 175.718 28.8682V22.6316C175.718 21.6835 175.898 20.8998 176.254 20.286C176.604 19.6668 177.086 19.2119 177.694 18.916C178.257 18.642 178.892 18.494 179.598 18.4721C180.326 18.483 180.983 18.6255 181.574 18.9105C182.181 19.2064 182.663 19.6613 183.018 20.2806C183.374 20.8998 183.549 21.6781 183.549 22.6261V28.8627C183.549 29.2354 183.67 29.5423 183.916 29.7889C184.162 30.0355 184.469 30.1561 184.841 30.1561C185.213 30.1561 185.52 30.0355 185.766 29.7889C186.012 29.5423 186.132 29.2354 186.132 28.8627V22.6316C186.132 21.2287 185.864 20.0449 185.333 19.0804C184.803 18.1158 184.075 17.387 183.155 16.8883C182.236 16.3895 181.191 16.1375 180.025 16.1375C179.921 16.1375 179.363 16.1375 179.242 16.1375C178.077 16.1375 177.031 16.3841 176.112 16.8883C175.959 16.9705 175.811 17.0581 175.669 17.1623C174.957 17.6336 174.377 18.2748 173.934 19.0804C173.403 20.0449 173.135 21.2287 173.135 22.6316V28.8682C173.135 28.9669 173.146 29.06 173.157 29.1477Z" fill="white"/>
<path d="M142.549 30.1396C141.367 30.1396 140.272 29.9588 139.271 29.5971C138.264 29.2354 137.487 28.775 136.928 28.216C136.677 27.9475 136.567 27.6351 136.611 27.2899C136.655 26.9446 136.819 26.6596 137.104 26.4404C137.443 26.1719 137.777 26.0568 138.105 26.1006C138.433 26.1445 138.718 26.2924 138.953 26.5445C139.238 26.8679 139.703 27.1638 140.332 27.4433C140.967 27.7228 141.668 27.8598 142.445 27.8598C143.424 27.8598 144.169 27.7009 144.689 27.3775C145.203 27.0542 145.471 26.6432 145.488 26.1335C145.504 25.6238 145.263 25.1854 144.765 24.8128C144.267 24.4401 143.359 24.1387 142.045 23.8975C140.338 23.5578 139.101 23.0536 138.335 22.374C137.569 21.6999 137.18 20.8669 137.18 19.8914C137.18 19.031 137.432 18.3131 137.941 17.7486C138.45 17.1841 139.096 16.7622 139.889 16.4827C140.683 16.2032 141.509 16.0662 142.374 16.0662C143.49 16.0662 144.475 16.2415 145.334 16.5978C146.194 16.954 146.878 17.4417 147.387 18.0665C147.622 18.335 147.732 18.62 147.715 18.9159C147.699 19.2119 147.556 19.4585 147.283 19.6613C147.015 19.8476 146.692 19.9079 146.32 19.8366C145.947 19.7709 145.635 19.6174 145.384 19.3818C144.962 18.9762 144.508 18.6967 144.016 18.5433C143.523 18.3898 142.959 18.3131 142.319 18.3131C141.575 18.3131 140.945 18.4391 140.431 18.6912C139.916 18.9433 139.659 19.316 139.659 19.8092C139.659 20.1161 139.741 20.3901 139.9 20.6313C140.059 20.8779 140.376 21.0971 140.847 21.2889C141.317 21.4862 142.013 21.6725 142.921 21.8589C144.185 22.111 145.187 22.4343 145.92 22.8234C146.653 23.2125 147.184 23.6674 147.502 24.1825C147.825 24.6977 147.983 25.295 147.983 25.9691C147.983 26.7473 147.775 27.4488 147.365 28.0735C146.949 28.6983 146.341 29.197 145.542 29.5697C144.749 29.9533 143.747 30.1396 142.549 30.1396Z" fill="white"/>
<path d="M152.279 13.907C151.824 13.907 151.43 13.7425 151.102 13.4137C150.774 13.0849 150.609 12.6903 150.609 12.2355C150.609 11.7806 150.774 11.386 151.102 11.0572C151.43 10.7284 151.824 10.564 152.279 10.564C152.733 10.564 153.127 10.7284 153.455 11.0572C153.784 11.386 153.948 11.7806 153.948 12.2355C153.948 12.6903 153.784 13.0849 153.455 13.4137C153.127 13.7425 152.738 13.907 152.279 13.907ZM152.279 30.0355C151.906 30.0355 151.6 29.915 151.354 29.6684C151.107 29.4217 150.987 29.1148 150.987 28.7422V17.4582C150.987 17.0691 151.107 16.7567 151.354 16.5211C151.6 16.2854 151.906 16.1648 152.279 16.1648C152.667 16.1648 152.979 16.2854 153.214 16.5211C153.45 16.7567 153.57 17.0691 153.57 17.4582V28.7422C153.57 29.1148 153.45 29.4217 153.214 29.6684C152.979 29.915 152.667 30.0355 152.279 30.0355Z" fill="white"/>
<path d="M163.344 30.1398C161.976 30.1398 160.766 29.8383 159.721 29.241C158.676 28.6381 157.85 27.8106 157.253 26.7584C156.651 25.7007 156.355 24.4895 156.355 23.1195C156.355 21.7329 156.656 20.5108 157.253 19.4531C157.85 18.3954 158.676 17.5679 159.721 16.9705C160.766 16.3677 161.976 16.0718 163.344 16.0718C164.696 16.0718 165.894 16.3732 166.94 16.9705C167.985 17.5734 168.811 18.4009 169.408 19.4531C170.004 20.5108 170.305 21.7329 170.305 23.1195C170.305 24.4895 170.01 25.7007 169.419 26.7584C168.828 27.8161 168.007 28.6436 166.962 29.241C165.916 29.8383 164.707 30.1398 163.344 30.1398ZM163.344 27.8545C164.22 27.8545 164.997 27.6517 165.675 27.2461C166.349 26.8406 166.879 26.2816 167.257 25.5746C167.635 24.8622 167.826 24.0456 167.826 23.114C167.826 22.1823 167.635 21.3603 167.257 20.6424C166.879 19.9244 166.349 19.36 165.675 18.9544C165.002 18.5489 164.225 18.3461 163.344 18.3461C162.468 18.3461 161.691 18.5489 161.013 18.9544C160.34 19.36 159.803 19.9244 159.415 20.6424C159.026 21.3603 158.835 22.1878 158.835 23.114C158.835 24.0456 159.026 24.8622 159.415 25.5746C159.803 26.2871 160.334 26.8406 161.013 27.2461C161.686 27.6517 162.463 27.8545 163.344 27.8545Z" fill="white"/>
<path d="M34.9159 9.80781V31.1701C34.9159 32.1839 34.0895 33.0115 33.077 33.0115C32.5571 33.0115 32.0974 32.7977 31.7581 32.458C31.4188 32.1182 31.2054 31.6578 31.2054 31.1701V9.77493C31.2054 6.49222 28.6004 3.75754 25.2894 3.73014C22.1316 3.69725 19.4938 6.15244 19.3132 9.2543V30.4631C19.3132 30.5837 19.3132 30.6769 19.3132 30.8029C19.3132 30.8358 19.3132 30.8961 19.3132 30.9235C19.3132 30.9235 19.3132 30.9235 19.3132 30.9563V30.9892C19.2201 32.9238 18.547 34.7049 17.4743 36.1462C17.4141 36.2394 17.3539 36.2997 17.2883 36.3928C17.042 36.6997 16.7684 37.0066 16.4893 37.2806C14.7435 39.0289 12.2917 40.103 9.62101 40.103C4.2906 40.0701 0 35.653 0 30.3426V8.91452C0 7.90066 0.826378 7.07313 1.83883 7.07313C2.35874 7.07313 2.81844 7.28686 3.15775 7.62664C3.49706 7.96642 3.71049 8.42677 3.71049 8.91452V30.3371C3.71049 33.6198 6.3155 36.3545 9.62649 36.3819C12.7842 36.4147 15.4221 33.9596 15.6355 30.8577V9.62148C15.6355 9.50091 15.6355 9.37486 15.6355 9.2543C15.6355 9.22141 15.6355 9.19401 15.6355 9.16113C15.7286 7.22658 16.4017 5.44548 17.4743 4.00415C17.5345 3.91099 17.5947 3.8507 17.6604 3.75754C17.9067 3.45064 18.1803 3.14374 18.4594 2.86973C20.2052 1.12151 22.657 0.0473633 25.3277 0.0473633C30.6526 0.0747649 34.9159 4.49738 34.9159 9.80781Z" fill="white"/>
<path d="M15.6028 9.25436C15.6028 9.37492 15.6028 9.50097 15.6028 9.62154V30.8633C15.3893 33.9651 12.7843 36.4203 9.59373 36.3874C6.31558 36.3545 3.67773 33.6253 3.67773 30.3426V9.13379C3.73793 12.0164 5.97627 14.4113 8.76735 14.8443V28.0738C7.7549 28.4135 7.04892 29.3616 7.04892 30.4961C7.04892 31.91 8.21461 33.0718 9.62109 33.0718C11.0331 33.0718 12.1933 31.9374 12.1933 30.4961C12.1933 29.389 11.4873 28.441 10.4748 28.0738V14.8717C13.2331 14.4716 15.3784 12.2028 15.5645 9.4078C15.6028 9.34752 15.6028 9.28724 15.6028 9.25436Z" fill="url(#paint0_linear_14123_2392)"/>
<path d="M31.1724 9.13388C31.1724 8.98043 31.1396 8.85986 31.1122 8.70642C31.1122 8.64613 31.0794 8.58585 31.0794 8.52008C31.0466 8.39952 31.0192 8.27347 30.9864 8.12002C30.3132 5.60456 28.0421 3.69741 25.3166 3.67C22.1589 3.63712 19.5211 6.0923 19.3076 9.19416V30.4359C19.3076 30.5564 19.3076 30.6825 19.3076 30.8031C19.3076 30.7428 19.3076 30.7099 19.3076 30.6496C19.4937 27.8546 21.639 25.5858 24.3972 25.2186V12.0768C23.3848 11.737 22.6788 10.7889 22.6788 9.65451C22.6788 8.24059 23.8445 7.07876 25.251 7.07876C26.6575 7.07876 27.8231 8.21319 27.8231 9.65451C27.8231 10.7615 27.1172 11.7096 26.1047 12.0768V25.246C28.9232 25.6735 31.1341 28.0684 31.1943 30.9565V9.74768C31.2053 9.56135 31.2053 9.34761 31.1724 9.13388Z" fill="url(#paint1_linear_14123_2392)"/>
<defs>
<linearGradient id="paint0_linear_14123_2392" x1="9.60473" y1="10.6025" x2="9.69868" y2="34.8644" gradientUnits="userSpaceOnUse">
<stop offset="0.1416" stop-color="#2C7AFF"/>
<stop offset="0.8162" stop-color="#00D2FF"/>
</linearGradient>
<linearGradient id="paint1_linear_14123_2392" x1="25.2188" y1="5.14012" x2="25.3133" y2="29.4313" gradientUnits="userSpaceOnUse">
<stop offset="0.161458" stop-color="#00D2FF"/>
<stop offset="0.859375" stop-color="#2C7AFF"/>
</linearGradient>
</defs>
</svg>
